<?xml version="1.0" standalone="no"?>
<!DOCTYPE svg PUBLIC "-//W3C//DTD SVG 20010904//EN"
 "http://www.w3.org/TR/2001/REC-SVG-20010904/DTD/svg10.dtd">
<svg version="1.0" xmlns="http://www.w3.org/2000/svg"
 width="460.000000pt" height="460.000000pt" viewBox="0 0 460.000000 460.000000"
 preserveAspectRatio="xMidYMid meet">
<metadata>
Created by potrace 1.14, written by Peter Selinger 2001-2017
</metadata>
<g transform="translate(0.000000,460.000000) scale(0.100000,-0.100000)"
fill="#000000" stroke="none">
<path d="M0 3924 l0 -677 504 504 c278 277 582 582 677 677 l172 172 -677 0
-676 0 0 -676z"/>
<path d="M3915 3920 c374 -374 681 -680 683 -680 1 0 2 306 2 680 l0 680 -682
0 -682 0 679 -680z"/>
<path d="M2850 4467 c-59 -29 -200 -170 -228 -228 -12 -25 -22 -59 -22 -76 0
-39 43 -94 100 -126 l45 -26 -30 -11 c-59 -21 -99 -46 -142 -86 -40 -38 -59
-82 -30 -71 6 2 93 32 193 66 277 93 334 119 369 165 23 31 32 56 20 56 -3 0
-22 -7 -42 -15 -46 -19 -129 -19 -184 0 -172 60 -238 135 -151 172 67 29 122
28 184 -1 30 -14 57 -26 60 -26 3 0 15 22 27 49 34 79 27 124 -23 159 -41 28
-89 28 -146 -1z"/>
<path d="M1837 3660 l-97 -198 10 -99 c6 -54 15 -124 21 -156 10 -60 32 -242
49 -422 6 -55 14 -138 20 -185 10 -89 27 -273 60 -630 24 -269 32 -521 22
-670 -7 -98 -6 -117 7 -128 8 -6 18 -9 22 -5 15 16 118 220 138 273 45 124 61
221 61 376 0 82 -5 194 -10 249 -6 55 -15 163 -20 240 -5 77 -14 183 -20 235
-6 52 -19 183 -30 290 -22 212 -32 294 -56 470 -8 63 -22 167 -30 230 -32 263
-40 319 -44 324 -3 2 -49 -85 -103 -194z"/>
<path d="M2757 3651 c-111 -226 -104 -173 -67 -446 22 -160 43 -345 65 -555
83 -829 102 -1115 87 -1353 -6 -107 -5 -120 10 -128 13 -7 20 -4 30 13 7 13
20 37 29 53 73 132 117 244 144 369 15 67 17 111 12 275 -3 108 -10 243 -16
301 -6 58 -15 161 -21 230 -12 146 -33 361 -54 545 -35 303 -46 398 -51 418
-3 12 -12 76 -20 142 -33 273 -38 311 -44 322 -4 7 -49 -74 -104 -186z"/>
<path d="M3918 679 l-676 -679 679 0 679 0 0 680 c0 374 -1 679 -2 679 -2 -1
-307 -307 -680 -680z"/>
<path d="M0 675 l0 -675 677 0 c372 0 674 2 672 5 -22 24 -1344 1345 -1346
1345 -2 0 -3 -304 -3 -675z"/>
<path d="M1867 806 c-107 -39 -264 -212 -275 -301 -4 -39 -1 -47 37 -88 23
-25 56 -52 73 -60 l32 -15 -55 -25 c-29 -13 -73 -39 -97 -56 -40 -30 -72 -75
-60 -86 5 -6 320 96 403 130 98 40 144 65 168 95 36 43 35 55 -5 44 -18 -5
-69 -9 -113 -9 -70 0 -88 4 -148 34 -139 68 -162 113 -78 150 27 11 66 21 86
21 39 0 135 -37 135 -51 0 -5 4 -9 9 -9 15 0 51 97 51 137 0 74 -82 118 -163
89z"/>
</g>
</svg>
